<svg width="19" height="18" viewBox="0 0 19 18" fill="none" xmlns="http://www.w3.org/2000/svg">
<g clip-path="url(#clip0_3715_1203)">
<path d="M8.63672 1.5C12.3627 1.5 15.3867 4.524 15.3867 8.25C15.3867 11.976 12.3627 15 8.63672 15C4.91072 15 1.88672 11.976 1.88672 8.25C1.88672 4.524 4.91072 1.5 8.63672 1.5ZM8.63672 13.5C11.5373 13.5 13.8867 11.1506 13.8867 8.25C13.8867 5.34937 11.5373 3 8.63672 3C5.73609 3 3.38672 5.34937 3.38672 8.25C3.38672 11.1506 5.73609 13.5 8.63672 13.5ZM13.6729 13.3388C13.9635 13.0482 14.4338 13.0456 14.7276 13.3329L16.5798 15.1444C16.8783 15.4363 16.8809 15.9157 16.5858 16.2108V16.2108C16.2952 16.5014 15.8249 16.504 15.5311 16.2167L13.6789 14.4052C13.3804 14.1133 13.3778 13.634 13.6729 13.3388V13.3388Z" fill="black"/>
<path d="M5.63672 7.97727C7.14295 7.97727 8.36399 6.75623 8.36399 5.25H8.90945C8.90945 6.75623 10.1305 7.97727 11.6367 7.97727V8.52273C10.1305 8.52273 8.90945 9.74378 8.90945 11.25H8.36399C8.36399 9.74378 7.14295 8.52273 5.63672 8.52273V7.97727Z" fill="black"/>
</g>
<defs>
<clipPath id="clip0_3715_1203">
<rect width="18" height="18" fill="white" transform="translate(0.386719)"/>
</clipPath>
</defs>
</svg>
