<svg width="40" height="40" viewBox="0 0 40 40" fill="none" xmlns="http://www.w3.org/2000/svg">
<rect width="40" height="40" rx="20" fill="#009C3E" fill-opacity="0.2"/>
<path d="M11.25 17.3695C11.25 14.4731 13.592 12.125 16.5006 12.125H23.4994C26.3992 12.125 28.75 14.4829 28.75 17.3695V27.875H16.5006C13.6008 27.875 11.25 25.517 11.25 22.6305V17.3695ZM27 26.125V17.3695C27 15.446 25.4293 13.875 23.4994 13.875H16.5006C14.5615 13.875 13 15.4365 13 17.3695V22.6305C13 24.554 14.5707 26.125 16.5006 26.125H27ZM21.75 19.125H23.5V20.875H21.75V19.125ZM16.5 19.125H18.25V20.875H16.5V19.125Z" fill="#009C3E"/>
</svg>
