<svg width="50" height="50" viewBox="0 0 50 50" fill="none" xmlns="http://www.w3.org/2000/svg">
<rect width="50" height="50" rx="25" fill="#7623B5" fill-opacity="0.2"/>
<path d="M21.4706 13C20.6235 13 20.0588 13.48 20.0588 14.2V35.8C20.0588 36.52 20.6235 37 21.4706 37C22.3176 37 22.8824 36.52 22.8824 35.8V14.2C22.8824 13.48 22.3176 13 21.4706 13ZM14.4118 25C13.5647 25 13 25.48 13 26.2V35.8C13 36.52 13.5647 37 14.4118 37C15.2588 37 15.8235 36.52 15.8235 35.8V26.2C15.8235 25.48 15.2588 25 14.4118 25ZM28.5294 20.2C27.6824 20.2 27.1176 20.68 27.1176 21.4V35.8C27.1176 36.52 27.6824 37 28.5294 37C29.3765 37 29.9412 36.52 29.9412 35.8V21.4C29.9412 20.68 29.3765 20.2 28.5294 20.2ZM35.5882 29.8C34.7412 29.8 34.1765 30.28 34.1765 31V35.8C34.1765 36.52 34.7412 37 35.5882 37C36.4353 37 37 36.52 37 35.8V31C37 30.28 36.4353 29.8 35.5882 29.8Z" fill="#7623B5"/>
</svg>