<svg width="41" height="40" viewBox="0 0 41 40" fill="none" xmlns="http://www.w3.org/2000/svg">
<rect x="0.5" width="40" height="40" rx="20" fill="#CC712C" fill-opacity="0.2"/>
<path d="M24.2493 12.5C26.7807 12.5 28.8327 14.5833 28.8327 17.5C28.8327 23.3333 22.5827 26.6667 20.4993 27.9167C18.416 26.6667 12.166 23.3333 12.166 17.5C12.166 14.5833 14.2493 12.5 16.7493 12.5C18.2993 12.5 19.666 13.3333 20.4993 14.1667C21.3327 13.3333 22.6993 12.5 24.2493 12.5ZM21.2776 25.5032C22.0123 25.0404 22.6743 24.5796 23.2951 24.0858C25.7774 22.1108 27.166 19.9529 27.166 17.5C27.166 15.534 25.8852 14.1667 24.2493 14.1667C23.3528 14.1667 22.3821 14.6409 21.6778 15.3452L20.4993 16.5237L19.3208 15.3452C18.6166 14.6409 17.6459 14.1667 16.7493 14.1667C15.1319 14.1667 13.8327 15.5471 13.8327 17.5C13.8327 19.9529 15.2212 22.1108 17.7036 24.0858C18.3243 24.5796 18.9864 25.0404 19.7211 25.5032C19.9698 25.6599 20.2169 25.8108 20.4993 25.9793C20.7818 25.8108 21.0288 25.6599 21.2776 25.5032Z" fill="#CC712C"/>
</svg>
