<svg width="50" height="50" viewBox="0 0 50 50" fill="none" xmlns="http://www.w3.org/2000/svg">
<rect width="50" height="50" rx="25" fill="#E39D05" fill-opacity="0.2"/>
<path fill-rule="evenodd" clip-rule="evenodd" d="M13.9326 30.7249C12.8879 29.6314 11.9458 28.4489 11.1177 27.1914C10.761 26.6597 10.4322 26.1106 10.1325 25.5463C9.95582 25.202 9.95582 24.7968 10.1325 24.4524C10.4321 23.8885 10.7609 23.3398 11.1177 22.8086C11.9458 21.5512 12.8878 20.3686 13.9324 19.2752C17.0772 15.9947 20.7744 14 25.0007 14C29.227 14 32.9242 15.9959 36.0675 19.2751C37.1115 20.3687 38.0532 21.5512 38.881 22.8086C39.2384 23.3398 39.5677 23.8884 39.8675 24.4525C40.0443 24.7968 40.0443 25.202 39.8675 25.5463C39.5675 26.1106 39.2383 26.6597 38.8812 27.1914C38.0532 28.4488 37.1115 29.6313 36.0673 30.7248C32.9241 34.0053 29.2256 36 25.0007 36C20.7758 36 17.0784 34.0041 13.9326 30.7249V30.7249ZM15.7545 20.9433C14.8125 21.9301 13.9631 22.9973 13.2165 24.1321C13.0122 24.4401 12.8317 24.7309 12.6738 24.9962C12.8317 25.2626 13.0122 25.5511 13.2165 25.8603C13.9629 26.9946 14.8124 28.0614 15.7543 29.0478C18.468 31.8797 21.5673 33.5517 24.9977 33.5517C28.4282 33.5517 31.5263 31.8797 34.2422 29.0479C35.1836 28.0611 36.0325 26.9943 36.7791 25.8603C36.9832 25.5511 37.1638 25.2614 37.3217 24.9962C37.1638 24.7298 36.9832 24.4401 36.779 24.1321C36.0325 22.9976 35.1836 21.9304 34.2422 20.9433C31.5275 18.1126 28.4294 16.4406 24.9977 16.4406C21.5661 16.4406 18.4692 18.1126 15.7557 20.9433H15.7545ZM19.9982 24.9945C20.0058 22.3038 22.2472 20.1278 25.0064 20.1325C27.7655 20.1372 29.9992 22.3208 29.9972 25.0115C29.9952 27.7022 27.7583 29.8826 24.9991 29.8834C22.235 29.8767 19.998 27.6898 19.998 24.9945H19.9982ZM22.4993 25.0038C22.5028 26.3489 23.6224 27.4371 25.0018 27.436C26.381 27.4349 27.4988 26.3448 27.5 24.9998C27.5012 23.6547 26.3851 22.5628 25.0059 22.5594C24.3409 22.5591 23.703 22.8164 23.2327 23.2749C22.7623 23.7334 22.498 24.3553 22.498 25.0038H22.4993Z" fill="#E39D05"/>
</svg>