<svg width="18" height="17" viewBox="0 0 18 17" fill="none" xmlns="http://www.w3.org/2000/svg">
<path d="M3.9347 10.2923L6.34419 7.88285L8.34765 9.8863L10.5838 7.65016L9.31382 6.38021H12.8555V9.92185L11.5855 8.65188L8.34765 11.8897L6.34419 9.8863L4.59167 11.6388C5.60688 13.1656 7.34283 14.1719 9.31382 14.1719C12.4434 14.1719 14.9805 11.6348 14.9805 8.50519C14.9805 5.37559 12.4434 2.83854 9.31382 2.83854C6.18419 2.83854 3.64714 5.37559 3.64714 8.50519C3.64714 9.12965 3.74814 9.73046 3.9347 10.2923ZM2.8453 11.396L2.83813 11.3889L2.84087 11.3861C2.44855 10.506 2.23047 9.53107 2.23047 8.50519C2.23047 4.59319 5.40179 1.42188 9.31382 1.42188C13.2258 1.42188 16.3971 4.59319 16.3971 8.50519C16.3971 12.4172 13.2258 15.5885 9.31382 15.5885C6.43149 15.5885 3.95128 13.867 2.8453 11.396Z" fill="black"/>
</svg>
