<svg width="14" height="14" viewBox="0 0 14 14" fill="none" xmlns="http://www.w3.org/2000/svg">
<path fill-rule="evenodd" clip-rule="evenodd" d="M8.27938 13.4369C7.92595 13.4369 7.6394 13.1634 7.6394 12.8259V8.54907C7.6394 8.21166 7.92595 7.93809 8.27938 7.93809H12.7592C13.1127 7.93809 13.3992 8.21166 13.3992 8.54907V12.8259C13.3992 13.1634 13.1127 13.4369 12.7592 13.4369H8.27938ZM8.91936 12.2194H12.1193V9.16446H8.91936V12.2194ZM1.23959 13.4369C0.886163 13.4369 0.599609 13.1634 0.599609 12.8259V8.54907C0.599609 8.21166 0.886163 7.93809 1.23959 7.93809H5.71946C6.07288 7.93809 6.35944 8.21166 6.35944 8.54907V12.8259C6.35944 13.1634 6.07288 13.4369 5.71946 13.4369H1.23959ZM1.87957 12.2194H5.07947V9.16446H1.87957V12.2194ZM8.27938 6.71759C7.92595 6.71759 7.6394 6.44402 7.6394 6.10661V1.82973C7.6394 1.49232 7.92595 1.21875 8.27938 1.21875H12.7592C13.1127 1.21875 13.3992 1.49232 13.3992 1.82973V6.10661C13.3992 6.44402 13.1127 6.71759 12.7592 6.71759H8.27938ZM8.91936 5.49269H12.1193V2.43778H8.91936V5.49269ZM1.23959 6.71759C0.886163 6.71759 0.599609 6.44402 0.599609 6.10661V1.82973C0.599609 1.49232 0.886163 1.21875 1.23959 1.21875H5.71946C6.07288 1.21875 6.35944 1.49232 6.35944 1.82973V6.10661C6.35944 6.44402 6.07288 6.71759 5.71946 6.71759H1.23959ZM1.87957 5.49269H5.07947V2.43778H1.87957V5.49269Z" fill="#999999"/>
</svg>