<svg width="50" height="50" viewBox="0 0 50 50" fill="none" xmlns="http://www.w3.org/2000/svg">
<rect width="50" height="50" rx="25" fill="#FFA400" fill-opacity="0.2"/>
<path fill-rule="evenodd" clip-rule="evenodd" d="M17.0663 34.6616C12.5703 30.9307 11.2223 24.6697 13.7944 19.4637C16.3133 14.2782 22.1562 11.5154 27.8415 12.8217C33.5361 14.1898 37.532 19.228 37.4998 24.9993V26.1372C37.5202 28.629 35.4852 30.6652 32.9545 30.6856C31.4768 30.6831 30.0936 29.9692 29.2508 28.774C28.1825 29.9873 26.6323 30.6847 25.0014 30.6856C22.6579 30.723 20.5238 29.3619 19.6005 27.2407C18.6772 25.1196 19.1479 22.6593 20.7916 21.0142C22.4354 19.3691 24.9261 18.8655 27.0953 19.7398C29.2645 20.6141 30.6816 22.6927 30.682 25.0004L30.6819 26.1383C30.6794 26.9394 31.1119 27.6807 31.8161 28.082C32.5204 28.4833 33.3886 28.4833 34.0929 28.082C34.7971 27.6808 35.2297 26.9394 35.2272 26.1383V25.0004C35.2534 20.2785 31.9842 16.1564 27.3253 15.0368C22.6731 13.967 17.8916 16.2277 15.8308 20.4712C13.7286 24.7288 14.8302 29.8481 18.5053 32.9007C22.1584 35.9197 27.4587 36.0107 31.2164 33.1188C31.4552 32.9339 31.7599 32.8521 32.061 32.892C32.3622 32.9318 32.6342 33.0898 32.8151 33.3302C33.1969 33.8298 33.103 34.5383 32.6038 34.9247C28.0115 38.4564 21.5361 38.3448 17.0721 34.657L17.0663 34.6616ZM21.5914 25.0005C21.6213 26.847 23.1607 28.3225 25.0362 28.3028C26.9116 28.2831 28.4187 26.7755 28.4088 24.9289C28.3989 23.0823 26.8758 21.5904 25.0002 21.5902C24.0883 21.5968 23.2165 21.9598 22.5766 22.5994C21.9367 23.239 21.5811 24.1027 21.588 25.0005H21.5914Z" fill="#FFA400"/>
</svg>