<svg width="16" height="16" viewBox="0 0 16 16" fill="none" xmlns="http://www.w3.org/2000/svg">
<path d="M5.88591 0.5C5.3565 0.5 5.00356 0.8 5.00356 1.25V14.75C5.00356 15.2 5.3565 15.5 5.88591 15.5C6.41533 15.5 6.76827 15.2 6.76827 14.75V1.25C6.76827 0.8 6.41533 0.5 5.88591 0.5ZM1.47415 8C0.944738 8 0.591797 8.3 0.591797 8.75V14.75C0.591797 15.2 0.944738 15.5 1.47415 15.5C2.00356 15.5 2.3565 15.2 2.3565 14.75V8.75C2.3565 8.3 2.00356 8 1.47415 8ZM10.2977 5C9.76827 5 9.41533 5.3 9.41533 5.75V14.75C9.41533 15.2 9.76827 15.5 10.2977 15.5C10.8271 15.5 11.18 15.2 11.18 14.75V5.75C11.18 5.3 10.8271 5 10.2977 5ZM14.7094 11C14.18 11 13.8271 11.3 13.8271 11.75V14.75C13.8271 15.2 14.18 15.5 14.7094 15.5C15.2389 15.5 15.5918 15.2 15.5918 14.75V11.75C15.5918 11.3 15.2389 11 14.7094 11Z" fill="black"/>
</svg>
