<svg width="30" height="31" viewBox="0 0 30 31" fill="none" xmlns="http://www.w3.org/2000/svg">
<rect y="0.5" width="30" height="30" rx="15" fill="#7623B5" fill-opacity="0.2"/>
<path d="M12.7843 7.90625C12.2525 7.90625 11.898 8.21005 11.898 8.66574V22.3366C11.898 22.7923 12.2525 23.0961 12.7843 23.0961C13.316 23.0961 13.6705 22.7923 13.6705 22.3366V8.66574C13.6705 8.21005 13.316 7.90625 12.7843 7.90625ZM8.35304 15.5012C7.82129 15.5012 7.4668 15.805 7.4668 16.2607V22.3366C7.4668 22.7923 7.82129 23.0961 8.35304 23.0961C8.88479 23.0961 9.23928 22.7923 9.23928 22.3366V16.2607C9.23928 15.805 8.88479 15.5012 8.35304 15.5012ZM17.2155 12.4632C16.6837 12.4632 16.3292 12.767 16.3292 13.2227V22.3366C16.3292 22.7923 16.6837 23.0961 17.2155 23.0961C17.7472 23.0961 18.1017 22.7923 18.1017 22.3366V13.2227C18.1017 12.767 17.7472 12.4632 17.2155 12.4632ZM21.6467 18.5392C21.1149 18.5392 20.7604 18.843 20.7604 19.2987V22.3366C20.7604 22.7923 21.1149 23.0961 21.6467 23.0961C22.1784 23.0961 22.5329 22.7923 22.5329 22.3366V19.2987C22.5329 18.843 22.1784 18.5392 21.6467 18.5392Z" fill="#7623B5"/>
</svg>
