<svg width="19" height="14" viewBox="0 0 19 14" fill="none" xmlns="http://www.w3.org/2000/svg">
<path fill-rule="evenodd" clip-rule="evenodd" d="M3.04314 10.3829C2.41635 9.73674 1.85108 9.03797 1.35418 8.29494C1.14021 7.98071 0.94294 7.65625 0.763112 7.32283C0.657088 7.11939 0.657088 6.8799 0.763112 6.67645C0.942848 6.34322 1.14012 6.019 1.35418 5.70508C1.85108 4.96205 2.41626 4.26328 3.04304 3.61714C4.92991 1.67868 7.14824 0.5 9.68401 0.5C12.2198 0.5 14.4381 1.67939 16.3241 3.61712C16.9505 4.2633 17.5155 4.96207 18.0122 5.70506C18.2266 6.01896 18.4242 6.34317 18.6041 6.67647C18.7101 6.8799 18.7101 7.11939 18.6041 7.32283C18.4241 7.65628 18.2265 7.98074 18.0123 8.29494C17.5155 9.03791 16.9505 9.73668 16.324 10.3829C14.438 12.3213 12.2189 13.5 9.68401 13.5C7.14907 13.5 4.93064 12.3206 3.04314 10.3829V10.3829ZM4.13748 4.61023C3.5723 5.19336 3.06265 5.82398 2.61469 6.49452C2.49214 6.67653 2.38382 6.8484 2.28909 7.00513C2.38382 7.16256 2.49214 7.33303 2.61469 7.51574C3.06256 8.18604 3.57221 8.81642 4.13739 9.39928C5.76557 11.0727 7.62517 12.0607 9.68342 12.0607C11.7417 12.0607 13.6005 11.0727 15.2301 9.3993C15.7949 8.81622 16.3043 8.18586 16.7522 7.51574C16.8747 7.33303 16.983 7.16186 17.0777 7.00513C16.983 6.84769 16.8747 6.67653 16.7521 6.49452C16.3043 5.82414 15.7949 5.19353 15.2301 4.61023C13.6013 2.93756 11.7424 1.94957 9.68342 1.94957C7.62444 1.94957 5.76631 2.93758 4.13822 4.61023H4.13748ZM6.68371 7.00155C6.6883 5.41162 8.03311 4.12577 9.68864 4.12855C11.3441 4.13131 12.6843 5.42162 12.6831 7.0116C12.6819 8.60156 11.3398 9.89 9.68424 9.89044C8.02576 9.88649 6.68362 8.59424 6.68362 7.00155H6.68371ZM8.1824 6.99487C8.18451 7.78969 8.85627 8.43275 9.6839 8.43209C10.5114 8.43142 11.1821 7.78727 11.1828 6.99247C11.1836 6.19764 10.5139 5.55243 9.68638 5.55043C9.28734 5.55025 8.90465 5.70233 8.62247 5.97325C8.34019 6.24415 8.18166 6.61165 8.18166 6.99487H8.1824Z" fill="black"/>
</svg>
