<svg width="19" height="18" viewBox="0 0 19 18" fill="none" xmlns="http://www.w3.org/2000/svg">
<path d="M3.43164 4H16.1191C16.2932 4 16.4601 4.08318 16.5832 4.23123C16.7062 4.37929 16.7754 4.58009 16.7754 4.78947C16.7754 4.99886 16.7062 5.19966 16.5832 5.34772C16.4601 5.49577 16.2932 5.57895 16.1191 5.57895H3.43164C3.25759 5.57895 3.09067 5.49577 2.9676 5.34772C2.84453 5.19966 2.77539 4.99886 2.77539 4.78947C2.77539 4.58009 2.84453 4.37929 2.9676 4.23123C3.09067 4.08318 3.25759 4 3.43164 4ZM5.40039 9C5.40039 8.79062 5.46953 8.58981 5.5926 8.44176C5.71567 8.2937 5.88259 8.21053 6.05664 8.21053H13.4941C13.6682 8.21053 13.8351 8.2937 13.9582 8.44176C14.0812 8.58981 14.1504 8.79062 14.1504 9C14.1504 9.20938 14.0812 9.41019 13.9582 9.55824C13.8351 9.7063 13.6682 9.78947 13.4941 9.78947H6.05664C5.88259 9.78947 5.71567 9.7063 5.5926 9.55824C5.46953 9.41019 5.40039 9.20938 5.40039 9ZM8.02539 13.2105C8.02539 13.0011 8.09453 12.8003 8.2176 12.6523C8.34067 12.5042 8.50759 12.4211 8.68164 12.4211H10.8691C11.0432 12.4211 11.2101 12.5042 11.3332 12.6523C11.4562 12.8003 11.5254 13.0011 11.5254 13.2105C11.5254 13.4199 11.4562 13.6207 11.3332 13.7688C11.2101 13.9168 11.0432 14 10.8691 14H8.68164C8.50759 14 8.34067 13.9168 8.2176 13.7688C8.09453 13.6207 8.02539 13.4199 8.02539 13.2105Z" fill="white"/>
</svg>