<svg width="30" height="30" viewBox="0 0 30 30" fill="none" xmlns="http://www.w3.org/2000/svg">
<rect width="30" height="30" rx="15" fill="#00C150" fill-opacity="0.2"/>
<path d="M13.8246 15.0613C15.3986 15.0613 16.6746 13.7692 16.6746 12.1752C16.6746 10.5812 15.3986 9.28906 13.8246 9.28906C12.2506 9.28906 10.9746 10.5812 10.9746 12.1752C10.9746 13.7692 12.2506 15.0613 13.8246 15.0613Z" stroke="#00C150" stroke-width="2"/>
<path d="M17.6738 9.67188C18.4838 10.188 19.0238 11.1156 19.0238 12.1737C19.0238 13.2322 18.4838 14.1597 17.6738 14.6758" stroke="#00C150" stroke-width="2"/>
<path d="M8.94922 20.7081C8.94922 15.8473 17.3492 15.8473 17.3492 20.7081" stroke="#00C150" stroke-width="2"/>
<path d="M21.0496 20.5814C21.0496 18.7798 19.8541 17.6457 18.3496 17.1797" stroke="#00C150" stroke-width="2"/>
</svg>
