<svg width="17" height="17" viewBox="0 0 17 17" fill="none" xmlns="http://www.w3.org/2000/svg">
<path d="M1.89453 15.1641C1.89453 12.2185 4.28234 9.83073 7.22786 9.83073C10.1734 9.83073 12.5612 12.2185 12.5612 15.1641H11.2279C11.2279 12.9549 9.437 11.1641 7.22786 11.1641C5.01872 11.1641 3.22786 12.9549 3.22786 15.1641H1.89453ZM7.22786 9.16406C5.01786 9.16406 3.22786 7.37406 3.22786 5.16406C3.22786 2.95406 5.01786 1.16406 7.22786 1.16406C9.43786 1.16406 11.2279 2.95406 11.2279 5.16406C11.2279 7.37406 9.43786 9.16406 7.22786 9.16406ZM7.22786 7.83073C8.7012 7.83073 9.89453 6.6374 9.89453 5.16406C9.89453 3.69073 8.7012 2.4974 7.22786 2.4974C5.75453 2.4974 4.5612 3.69073 4.5612 5.16406C4.5612 6.6374 5.75453 7.83073 7.22786 7.83073ZM12.7503 10.2993C14.6041 11.1348 15.8945 12.9987 15.8945 15.1641H14.5612C14.5612 13.5401 13.5934 12.1421 12.2031 11.5155L12.7503 10.2993ZM12.292 2.77287C13.6241 3.32208 14.5612 4.63314 14.5612 6.16406C14.5612 8.07753 13.0973 9.64753 11.2279 9.8158V8.4738C12.359 8.3122 13.2279 7.34006 13.2279 6.16406C13.2279 5.24363 12.6956 4.44808 11.9219 4.0683L12.292 2.77287Z" fill="black"/>
</svg>