<svg width="50" height="50" viewBox="0 0 50 50" fill="none" xmlns="http://www.w3.org/2000/svg">
<rect width="50" height="50" rx="25" fill="#00A4C1" fill-opacity="0.2"/>
<path d="M22.2988 25C25.3364 25 27.7988 22.5376 27.7988 19.5C27.7988 16.4624 25.3364 14 22.2988 14C19.2613 14 16.7988 16.4624 16.7988 19.5C16.7988 22.5376 19.2613 25 22.2988 25Z" stroke="#00A4C1" stroke-width="2.5"/>
<path d="M29.9023 14.6328C31.872 15.6579 33.1728 17.4722 33.1506 19.5233C33.1284 21.575 31.7886 23.3566 29.7973 24.3326" stroke="#00A4C1" stroke-width="2.5" stroke-linecap="round"/>
<path d="M15 36C15 26.6667 29 26.6667 29 36" stroke="#00A4C1" stroke-width="2.5"/>
<path d="M33.75 35V36.25H36.25V35H33.75ZM31.1763 28.7625C30.4929 28.6651 29.8599 29.1402 29.7625 29.8237C29.6651 30.5071 30.1402 31.1401 30.8237 31.2375L31.1763 28.7625ZM35 35H36.25C36.25 31.7525 34.2378 29.1987 31.1763 28.7625L31 30L30.8237 31.2375C32.5052 31.4771 33.75 32.8415 33.75 35H35Z" fill="#00A4C1"/>
</svg>
