<svg width="12" height="12" viewBox="0 0 12 12" fill="none" xmlns="http://www.w3.org/2000/svg">
<g clip-path="url(#clip0_3715_1229)">
<path d="M0 1C0 0.734784 0.0790178 0.48043 0.21967 0.292893C0.360322 0.105357 0.551088 0 0.75 0H1.5C1.69891 0 1.88968 0.105357 2.03033 0.292893C2.17098 0.48043 2.25 0.734784 2.25 1C2.25 1.26522 2.17098 1.51957 2.03033 1.70711C1.88968 1.89464 1.69891 2 1.5 2H0.75C0.551088 2 0.360322 1.89464 0.21967 1.70711C0.0790178 1.51957 0 1.26522 0 1ZM3.75 1C3.75 0.734784 3.82902 0.48043 3.96967 0.292893C4.11032 0.105357 4.30109 0 4.5 0H11.25C11.4489 0 11.6397 0.105357 11.7803 0.292893C11.921 0.48043 12 0.734784 12 1C12 1.26522 11.921 1.51957 11.7803 1.70711C11.6397 1.89464 11.4489 2 11.25 2H4.5C4.30109 2 4.11032 1.89464 3.96967 1.70711C3.82902 1.51957 3.75 1.26522 3.75 1ZM0 6C0 5.73478 0.0790178 5.48043 0.21967 5.29289C0.360322 5.10536 0.551088 5 0.75 5H1.5C1.69891 5 1.88968 5.10536 2.03033 5.29289C2.17098 5.48043 2.25 5.73478 2.25 6C2.25 6.26522 2.17098 6.51957 2.03033 6.70711C1.88968 6.89464 1.69891 7 1.5 7H0.75C0.551088 7 0.360322 6.89464 0.21967 6.70711C0.0790178 6.51957 0 6.26522 0 6ZM3.75 6C3.75 5.73478 3.82902 5.48043 3.96967 5.29289C4.11032 5.10536 4.30109 5 4.5 5H11.25C11.4489 5 11.6397 5.10536 11.7803 5.29289C11.921 5.48043 12 5.73478 12 6C12 6.26522 11.921 6.51957 11.7803 6.70711C11.6397 6.89464 11.4489 7 11.25 7H4.5C4.30109 7 4.11032 6.89464 3.96967 6.70711C3.82902 6.51957 3.75 6.26522 3.75 6ZM0 11C0 10.7348 0.0790178 10.4804 0.21967 10.2929C0.360322 10.1054 0.551088 10 0.75 10H1.5C1.69891 10 1.88968 10.1054 2.03033 10.2929C2.17098 10.4804 2.25 10.7348 2.25 11C2.25 11.2652 2.17098 11.5196 2.03033 11.7071C1.88968 11.8946 1.69891 12 1.5 12H0.75C0.551088 12 0.360322 11.8946 0.21967 11.7071C0.0790178 11.5196 0 11.2652 0 11ZM3.75 11C3.75 10.7348 3.82902 10.4804 3.96967 10.2929C4.11032 10.1054 4.30109 10 4.5 10H11.25C11.4489 10 11.6397 10.1054 11.7803 10.2929C11.921 10.4804 12 10.7348 12 11C12 11.2652 11.921 11.5196 11.7803 11.7071C11.6397 11.8946 11.4489 12 11.25 12H4.5C4.30109 12 4.11032 11.8946 3.96967 11.7071C3.82902 11.5196 3.75 11.2652 3.75 11Z" fill="#999999"/>
</g>
<defs>
<clipPath id="clip0_3715_1229">
<rect width="12" height="12" fill="white"/>
</clipPath>
</defs>
</svg>
