<svg width="18" height="18" viewBox="0 0 18 18" fill="none" xmlns="http://www.w3.org/2000/svg">
<g clip-path="url(#clip0_3949_1344)">
<path d="M8.75 15.0262L12.4623 11.3138C14.5125 9.26364 14.5125 5.9395 12.4623 3.88925C10.4121 1.839 7.08794 1.839 5.03769 3.88925C2.98744 5.9395 2.98744 9.26364 5.03769 11.3138L8.75 15.0262ZM8.75 17.1475L3.97703 12.3746C1.34099 9.73846 1.34099 5.46463 3.97703 2.82859C6.61307 0.192553 10.8869 0.192553 13.523 2.82859C16.159 5.46463 16.159 9.73846 13.523 12.3746L8.75 17.1475ZM8.75 9.10156C9.57845 9.10156 10.25 8.43001 10.25 7.60156C10.25 6.77314 9.57845 6.10156 8.75 6.10156C7.92155 6.10156 7.25 6.77314 7.25 7.60156C7.25 8.43001 7.92155 9.10156 8.75 9.10156ZM8.75 10.6016C7.09314 10.6016 5.75 9.25839 5.75 7.60156C5.75 5.94471 7.09314 4.60156 8.75 4.60156C10.4068 4.60156 11.75 5.94471 11.75 7.60156C11.75 9.25839 10.4068 10.6016 8.75 10.6016Z" fill="#71737C"/>
</g>
<defs>
<clipPath id="clip0_3949_1344">
<rect width="17.5" height="16.2959" fill="white" transform="translate(0 0.851562)"/>
</clipPath>
</defs>
</svg>
