<svg width="19" height="18" viewBox="0 0 19 18" fill="none" xmlns="http://www.w3.org/2000/svg">
<path d="M13.1758 15.75C11.726 15.75 10.5508 14.5747 10.5508 13.125C10.5508 11.6752 11.726 10.5 13.1758 10.5C14.6255 10.5 15.8008 11.6752 15.8008 13.125C15.8008 14.5747 14.6255 15.75 13.1758 15.75ZM13.1758 14.25C13.7971 14.25 14.3008 13.7464 14.3008 13.125C14.3008 12.5037 13.7971 12 13.1758 12C12.5545 12 12.0508 12.5037 12.0508 13.125C12.0508 13.7464 12.5545 14.25 13.1758 14.25ZM4.92578 7.49998C3.47604 7.49998 2.30078 6.32475 2.30078 4.875C2.30078 3.42525 3.47604 2.25 4.92578 2.25C6.37553 2.25 7.5508 3.42525 7.5508 4.875C7.5508 6.32475 6.37553 7.49998 4.92578 7.49998ZM4.92578 6C5.5471 6 6.05078 5.49632 6.05078 4.875C6.05078 4.25368 5.5471 3.75 4.92578 3.75C4.30447 3.75 3.80078 4.25368 3.80078 4.875C3.80078 5.49632 4.30447 6 4.92578 6ZM14.3541 2.63604L15.4148 3.6967L3.74749 15.364L2.68682 14.3033L14.3541 2.63604Z" fill="black"/>
</svg>
