<svg width="18" height="18" viewBox="0 0 18 18" fill="none" xmlns="http://www.w3.org/2000/svg">
<g clip-path="url(#clip0_3715_1210)">
<path d="M7.86044 13.7376C7.58284 14.3703 6.70313 14.3703 6.42556 13.7376L5.70348 12.0914C5.06087 10.6265 3.90423 9.46033 2.46147 8.82287L0.473931 7.94474C-0.157977 7.66557 -0.157977 6.75056 0.473931 6.47137L2.39939 5.62065C3.87926 4.96681 5.05664 3.75749 5.68827 2.24256L6.41972 0.488263C6.69114 -0.162754 7.59486 -0.162755 7.86628 0.488263L8.59771 2.24258C9.22933 3.75749 10.4067 4.96681 11.8866 5.62065L13.8121 6.47137C14.4439 6.75056 14.4439 7.66557 13.8121 7.94474L11.8245 8.82287C10.3818 9.46033 9.22514 10.6265 8.58249 12.0914L7.86044 13.7376ZM2.86236 7.20806C4.74304 8.039 6.27222 9.4048 7.14298 11.2841C8.0138 9.4048 9.54296 8.039 11.4236 7.20806C9.5205 6.36721 7.98648 4.93483 7.14299 3.02215C6.29951 4.93484 4.76547 6.36721 2.86236 7.20806ZM15.09 17.7457L15.293 17.2824C15.655 16.4564 16.307 15.7987 17.1206 15.439L17.7462 15.1623C18.0846 15.0127 18.0846 14.5232 17.7462 14.3736L17.1556 14.1123C16.3211 13.7433 15.6574 13.0613 15.3016 12.2073L15.0931 11.7066C14.9477 11.3578 14.4631 11.3578 14.3177 11.7066L14.1092 12.2073C13.7535 13.0613 13.0898 13.7433 12.2552 14.1123L11.6646 14.3736C11.3263 14.5232 11.3263 15.0127 11.6646 15.1623L12.2902 15.439C13.1038 15.7987 13.7558 16.4564 14.1178 17.2824L14.3209 17.7457C14.4695 18.0848 14.9413 18.0848 15.09 17.7457ZM14.2451 14.7623L14.7079 14.3049L15.161 14.7623L14.7079 15.2069L14.2451 14.7623Z" fill="black"/>
</g>
<defs>
<clipPath id="clip0_3715_1210">
<rect width="18" height="18" fill="white"/>
</clipPath>
</defs>
</svg>
