<svg width="18" height="18" viewBox="0 0 18 18" fill="none" xmlns="http://www.w3.org/2000/svg">
<path d="M9 3C7.05712 3 5.32954 3.9229 4.23205 5.35705L6 7.125H1.5V2.625L3.16397 4.28897C4.53796 2.589 6.64169 1.5 9 1.5C13.1421 1.5 16.5 4.85786 16.5 9H15C15 5.68629 12.3137 3 9 3ZM3 9C3 12.3137 5.68629 15 9 15C10.9429 15 12.6705 14.0771 13.768 12.643L12 10.875H16.5V15.375L14.8361 13.7111C13.4621 15.411 11.3583 16.5 9 16.5C4.85786 16.5 1.5 13.1421 1.5 9H3Z" fill="black"/>
<path d="M6 8.72727C7.50623 8.72727 8.72727 7.50623 8.72727 6H9.27273C9.27273 7.50623 10.4938 8.72727 12 8.72727V9.27273C10.4938 9.27273 9.27273 10.4938 9.27273 12H8.72727C8.72727 10.4938 7.50623 9.27273 6 9.27273V8.72727Z" fill="black"/>
</svg>
