<svg width="19" height="18" viewBox="0 0 19 18" fill="none" xmlns="http://www.w3.org/2000/svg">
<path d="M5.48047 3V15H12.9805V3H5.48047ZM4.73047 1.5H13.7305C14.1447 1.5 14.4805 1.83579 14.4805 2.25V15.75C14.4805 16.1642 14.1447 16.5 13.7305 16.5H4.73047C4.31626 16.5 3.98047 16.1642 3.98047 15.75V2.25C3.98047 1.83579 4.31626 1.5 4.73047 1.5ZM9.23047 12.75C9.64469 12.75 9.98047 13.0858 9.98047 13.5C9.98047 13.9142 9.64469 14.25 9.23047 14.25C8.81624 14.25 8.48047 13.9142 8.48047 13.5C8.48047 13.0858 8.81624 12.75 9.23047 12.75Z" fill="black"/>
</svg>
