<svg width="18" height="18" viewBox="0 0 18 18" fill="none" xmlns="http://www.w3.org/2000/svg">
<path fill-rule="evenodd" clip-rule="evenodd" d="M5.53861 1.38911C3.2456 1.39182 1.38747 3.24994 1.38477 5.54296V12.466C1.38739 14.759 3.24551 16.6172 5.53853 16.6199H12.4617C14.7547 16.6172 16.6128 14.7591 16.6155 12.466V5.54296C16.6129 3.25003 14.7548 1.39182 12.4618 1.38911H5.53861ZM5.53846 0H12.4615C15.5204 0 18 2.47961 18 5.53846V12.4615C18 15.5204 15.5204 18 12.4615 18H5.53846C2.47961 18 0 15.5204 0 12.4615V5.53846C0 2.47961 2.47961 0 5.53846 0Z" fill="#D9E1E7"/>
</svg>
