<svg width="13" height="13" viewBox="0 0 13 13" fill="none" xmlns="http://www.w3.org/2000/svg">
<path fill-rule="evenodd" clip-rule="evenodd" d="M7.80048 12.4102C7.4415 12.4102 7.15044 12.1324 7.15044 11.7896V7.44554C7.15044 7.10282 7.4415 6.82495 7.80048 6.82495H12.3508C12.7097 6.82495 13.0008 7.10282 13.0008 7.44554V11.7896C13.0008 12.1324 12.7097 12.4102 12.3508 12.4102H7.80048ZM8.45052 11.1735H11.7007V8.0706H8.45052V11.1735ZM0.65004 12.4102C0.291058 12.4102 0 12.1324 0 11.7896V7.44554C0 7.10282 0.291058 6.82495 0.65004 6.82495H5.20032C5.5593 6.82495 5.85036 7.10282 5.85036 7.44554V11.7896C5.85036 12.1324 5.5593 12.4102 5.20032 12.4102H0.65004ZM1.30008 11.1735H4.55028V8.0706H1.30008V11.1735ZM7.80048 5.58527C7.4415 5.58527 7.15044 5.3074 7.15044 4.96469V0.620586C7.15044 0.27787 7.4415 0 7.80048 0H12.3508C12.7097 0 13.0008 0.27787 13.0008 0.620586V4.96469C13.0008 5.3074 12.7097 5.58527 12.3508 5.58527H7.80048ZM8.45052 4.34112H11.7007V1.23819H8.45052V4.34112ZM0.65004 5.58527C0.291058 5.58527 0 5.3074 0 4.96469V0.620586C0 0.27787 0.291058 0 0.65004 0H5.20032C5.5593 0 5.85036 0.27787 5.85036 0.620586V4.96469C5.85036 5.3074 5.5593 5.58527 5.20032 5.58527H0.65004ZM1.30008 4.34112H4.55028V1.23819H1.30008V4.34112Z" fill="black"/>
</svg>
