<svg width="20" height="20" viewBox="0 0 20 20" fill="none" xmlns="http://www.w3.org/2000/svg">
<path d="M7.05882 0C6.35294 0 5.88235 0.4 5.88235 1V19C5.88235 19.6 6.35294 20 7.05882 20C7.76471 20 8.23529 19.6 8.23529 19V1C8.23529 0.4 7.76471 0 7.05882 0ZM1.17647 10C0.470588 10 0 10.4 0 11V19C0 19.6 0.470588 20 1.17647 20C1.88235 20 2.35294 19.6 2.35294 19V11C2.35294 10.4 1.88235 10 1.17647 10ZM12.9412 6C12.2353 6 11.7647 6.4 11.7647 7V19C11.7647 19.6 12.2353 20 12.9412 20C13.6471 20 14.1176 19.6 14.1176 19V7C14.1176 6.4 13.6471 6 12.9412 6ZM18.8235 14C18.1176 14 17.6471 14.4 17.6471 15V19C17.6471 19.6 18.1176 20 18.8235 20C19.5294 20 20 19.6 20 19V15C20 14.4 19.5294 14 18.8235 14Z" fill="#7623B5"/>
</svg>
