<svg width="19" height="14" viewBox="0 0 19 14" fill="none" xmlns="http://www.w3.org/2000/svg">
<path fill-rule="evenodd" clip-rule="evenodd" d="M2.45121 10.6431C1.80008 9.94726 1.21284 9.19474 0.696645 8.39456C0.474355 8.05615 0.269422 7.70674 0.0826075 7.34766C-0.0275358 7.12858 -0.0275358 6.87066 0.0826075 6.65156C0.269327 6.29269 0.47426 5.94354 0.696645 5.60547C1.21284 4.80528 1.79999 4.05276 2.45112 3.35692C4.41129 1.26935 6.71581 0 9.3501 0C11.9844 0 14.2889 1.27011 16.2481 3.3569C16.8989 4.05278 17.4858 4.80531 18.0018 5.60545C18.2246 5.94349 18.4298 6.29265 18.6167 6.65158C18.7269 6.87066 18.7269 7.12858 18.6167 7.34766C18.4297 7.70676 18.2245 8.05618 18.0019 8.39456C17.4858 9.19467 16.8989 9.94719 16.248 10.6431C14.2888 12.7307 11.9835 14 9.3501 14C6.71667 14 4.41205 12.7299 2.45121 10.6431ZM3.58784 4.42088C3.00069 5.04886 2.47124 5.72799 2.00587 6.45011C1.87856 6.64612 1.76604 6.83121 1.66762 7C1.76604 7.16955 1.87856 7.35312 2.00587 7.54989C2.47114 8.27175 3.0006 8.95062 3.58774 9.57831C5.27918 11.3804 7.21103 12.4444 9.34924 12.4444C11.4874 12.4444 13.4185 11.3804 15.1114 9.57834C15.6982 8.9504 16.2273 8.27156 16.6927 7.54989C16.8199 7.35312 16.9324 7.16879 17.0309 7C16.9324 6.83045 16.8199 6.64612 16.6926 6.45011C16.2273 5.72816 15.6982 5.04905 15.1114 4.42088C13.4193 2.61954 11.4882 1.55556 9.34924 1.55556C7.21026 1.55556 5.27994 2.61956 3.5886 4.42088H3.58784ZM6.23299 7C6.23776 5.28776 7.63482 3.90301 9.35467 3.906C11.0744 3.90897 12.4667 5.29854 12.4655 7.01082C12.4642 8.72308 11.07 10.1106 9.3501 10.1111C7.62719 10.1069 6.2329 8.7152 6.2329 7H6.23299ZM7.79073 7C7.79293 7.85596 8.49079 8.54848 9.35057 8.54777C10.2103 8.54706 10.907 7.85335 10.9077 6.99741C10.9085 6.14145 10.2128 5.4466 9.35315 5.44444C8.93861 5.44425 8.54104 5.60803 8.2479 5.89979C7.95466 6.19153 7.78997 6.5873 7.78997 7H7.79073Z" fill="#E33C05"/>
</svg>
