<svg width="20" height="20" viewBox="0 0 20 20" fill="none" xmlns="http://www.w3.org/2000/svg">
<path fill-rule="evenodd" clip-rule="evenodd" d="M3.65307 17.7293C0.056208 14.7445 -1.02215 9.7358 1.03553 5.57097C3.0506 1.42256 7.72493 -0.787661 12.2732 0.257328C16.8289 1.35184 20.0256 5.38243 19.9998 9.99942V10.9098C20.0161 12.9032 18.3882 14.5322 16.3636 14.5485C15.1814 14.5465 14.0748 13.9754 13.4007 13.0192C12.546 13.9898 11.3058 14.5478 10.0011 14.5485C8.12632 14.5784 6.41906 13.4895 5.68042 11.7926C4.94177 10.0957 5.31829 8.12747 6.6333 6.81136C7.94832 5.49528 9.94087 5.09243 11.6762 5.79185C13.4116 6.49124 14.5453 8.15412 14.5456 10.0003L14.5455 10.9107C14.5435 11.5515 14.8896 12.1446 15.4529 12.4656C16.0163 12.7866 16.7109 12.7866 17.2743 12.4656C17.8377 12.1446 18.1837 11.5516 18.1817 10.9107V10.0003C18.2027 6.22276 15.5874 2.92512 11.8603 2.02941C8.13848 1.17359 4.31331 2.98213 2.66461 6.37693C0.982888 9.78304 1.86418 13.8785 4.80426 16.3206C7.72672 18.7358 11.967 18.8086 14.9731 16.495C15.1641 16.3472 15.4079 16.2817 15.6488 16.3136C15.8897 16.3454 16.1073 16.4719 16.2521 16.6641C16.5576 17.0638 16.4824 17.6306 16.083 17.9397C12.4092 20.7651 7.22886 20.6758 3.65765 17.7256L3.65307 17.7293ZM7.27427 9.99392C7.29825 11.4711 8.52974 12.6515 10.0301 12.6358C11.5305 12.62 12.7361 11.4139 12.7282 9.9366C12.7203 8.45932 11.5018 7.26582 10.0013 7.26563C9.27184 7.27093 8.57435 7.56137 8.06244 8.07305C7.55053 8.5847 7.26602 9.27569 7.2716 9.99392H7.27427Z" fill="#FFA400"/>
</svg>
