<svg width="22" height="19" viewBox="0 0 22 19" fill="none" xmlns="http://www.w3.org/2000/svg">
<path d="M9.11914 10C11.6044 10 13.6191 7.98528 13.6191 5.5C13.6191 3.01472 11.6044 1 9.11914 1C6.63386 1 4.61914 3.01472 4.61914 5.5C4.61914 7.98528 6.63386 10 9.11914 10Z" stroke="#00C150" stroke-width="2"/>
<path d="M14.7012 1.11719C16.2266 2.03976 17.2341 3.6726 17.2169 5.51862C17.1997 7.36517 16.1621 8.96857 14.6198 9.84697" stroke="#00C150" stroke-width="2" stroke-linecap="round"/>
<path d="M2.9375 19C2.9375 11 14.9375 11 14.9375 19" stroke="#00C150" stroke-width="2"/>
<path d="M17.9375 18V19H19.9375V18H17.9375ZM16.0877 13.0114C15.5417 12.9284 15.0318 13.3037 14.9489 13.8498C14.8659 14.3958 15.2412 14.9057 15.7873 14.9886L16.0877 13.0114ZM18.9375 18H19.9375C19.9375 15.4548 18.4576 13.3715 16.0877 13.0114L15.9375 14L15.7873 14.9886C16.9746 15.1691 17.9375 16.2205 17.9375 18H18.9375Z" fill="#00C150"/>
</svg>
