<svg width="18" height="18" viewBox="0 0 18 18" fill="none" xmlns="http://www.w3.org/2000/svg">
<path d="M8.25 1.5C11.976 1.5 15 4.524 15 8.25C15 11.976 11.976 15 8.25 15C4.524 15 1.5 11.976 1.5 8.25C1.5 4.524 4.524 1.5 8.25 1.5ZM8.25 13.5C11.1506 13.5 13.5 11.1506 13.5 8.25C13.5 5.34938 11.1506 3 8.25 3C5.34938 3 3 5.34938 3 8.25C3 11.1506 5.34938 13.5 8.25 13.5ZM13.2862 13.3388C13.5768 13.0482 14.0471 13.0456 14.3409 13.3329L16.1931 15.1444C16.4916 15.4363 16.4942 15.9157 16.1991 16.2108C15.9085 16.5014 15.4382 16.504 15.1444 16.2167L13.2922 14.4052C12.9937 14.1133 12.991 13.634 13.2862 13.3388Z" fill="black"/>
<path d="M5.25 7.97727C6.75623 7.97727 7.97727 6.75623 7.97727 5.25H8.52273C8.52273 6.75623 9.74378 7.97727 11.25 7.97727V8.52273C9.74378 8.52273 8.52273 9.74378 8.52273 11.25H7.97727C7.97727 9.74378 6.75623 8.52273 5.25 8.52273V7.97727Z" fill="black"/>
</svg>
