<svg width="25" height="25" viewBox="0 0 25 25" fill="none" xmlns="http://www.w3.org/2000/svg">
<rect width="25" height="25" rx="5" fill="#217EFD"/>
<path fill-rule="evenodd" clip-rule="evenodd" d="M9.33193 16.676L6.34784 13.6642C5.88402 13.1932 5.88402 12.4358 6.34784 11.9648C6.57095 11.7392 6.87477 11.6123 7.19157 11.6123C7.50837 11.6123 7.81218 11.7392 8.0353 11.9648L10.1757 14.124L15.8962 8.3525C16.1196 8.12689 16.4234 8 16.7404 8C17.0575 8 17.3613 8.12689 17.5846 8.3525C18.049 8.8233 18.049 9.58107 17.5846 10.0519L11.0193 16.676C10.7959 16.9011 10.4922 17.0276 10.1755 17.0276C9.85886 17.0276 9.55516 16.9011 9.33181 16.676H9.33193Z" fill="white"/>
</svg>
